<svg width="570" height="374" viewBox="0 0 570 374" fill="none" xmlns="http://www.w3.org/2000/svg">
<g opacity="0.5">
<mask id="mask0_1_3480" style="mask-type:luminance" maskUnits="userSpaceOnUse" x="0" y="0" width="570" height="429">
<rect y="0.0996094" width="569.165" height="428.655" fill="url(#paint0_radial_1_3480)"/>
</mask>
<g mask="url(#mask0_1_3480)">
<rect x="-51.3925" y="0.707145" width="60.9174" height="60.9174" stroke="white" stroke-width="1.21507"/>
<rect x="10.74" y="0.707145" width="60.9174" height="60.9174" stroke="white" stroke-width="1.21507"/>
<rect x="72.8726" y="0.707145" width="60.9174" height="60.9174" stroke="white" stroke-width="1.21507"/>
<rect x="135.005" y="0.707145" width="60.9174" height="60.9174" stroke="white" stroke-width="1.21507"/>
<rect x="197.138" y="0.707145" width="60.9174" height="60.9174" stroke="white" stroke-width="1.21507"/>
<rect x="259.27" y="0.707145" width="60.9174" height="60.9174" stroke="white" stroke-width="1.21507"/>
<rect x="321.403" y="0.707145" width="60.9174" height="60.9174" stroke="white" stroke-width="1.21507"/>
<rect x="383.535" y="0.707145" width="60.9174" height="60.9174" stroke="white" stroke-width="1.21507"/>
<rect x="445.668" y="0.707145" width="60.9174" height="60.9174" stroke="white" stroke-width="1.21507"/>
<rect x="507.8" y="0.707145" width="60.9174" height="60.9174" stroke="white" stroke-width="1.21507"/>
<rect x="-51.3925" y="62.8396" width="60.9174" height="60.9174" stroke="white" stroke-width="1.21507"/>
<rect x="10.74" y="62.8396" width="60.9174" height="60.9174" stroke="white" stroke-width="1.21507"/>
<rect x="72.8726" y="62.8396" width="60.9174" height="60.9174" stroke="white" stroke-width="1.21507"/>
<rect x="135.005" y="62.8396" width="60.9174" height="60.9174" stroke="white" stroke-width="1.21507"/>
<rect x="197.138" y="62.8396" width="60.9174" height="60.9174" stroke="white" stroke-width="1.21507"/>
<rect x="259.27" y="62.8396" width="60.9174" height="60.9174" stroke="white" stroke-width="1.21507"/>
<rect x="321.403" y="62.8396" width="60.9174" height="60.9174" stroke="white" stroke-width="1.21507"/>
<rect x="383.535" y="62.8396" width="60.9174" height="60.9174" stroke="white" stroke-width="1.21507"/>
<rect x="445.668" y="62.8396" width="60.9174" height="60.9174" stroke="white" stroke-width="1.21507"/>
<rect x="507.8" y="62.8396" width="60.9174" height="60.9174" stroke="white" stroke-width="1.21507"/>
<rect x="-51.3925" y="124.972" width="60.9174" height="60.9174" stroke="white" stroke-width="1.21507"/>
<rect x="10.74" y="124.972" width="60.9174" height="60.9174" stroke="white" stroke-width="1.21507"/>
<rect x="72.8726" y="124.972" width="60.9174" height="60.9174" stroke="white" stroke-width="1.21507"/>
<rect x="135.005" y="124.972" width="60.9174" height="60.9174" fill="#D9D9D9" stroke="white" stroke-width="1.21507"/>
<rect x="197.138" y="124.972" width="60.9174" height="60.9174" stroke="white" stroke-width="1.21507"/>
<rect x="259.27" y="124.972" width="60.9174" height="60.9174" stroke="white" stroke-width="1.21507"/>
<rect x="321.403" y="124.972" width="60.9174" height="60.9174" stroke="white" stroke-width="1.21507"/>
<rect x="383.535" y="124.972" width="60.9174" height="60.9174" stroke="white" stroke-width="1.21507"/>
<rect x="445.668" y="124.972" width="60.9174" height="60.9174" stroke="white" stroke-width="1.21507"/>
<rect x="507.8" y="124.972" width="60.9174" height="60.9174" stroke="white" stroke-width="1.21507"/>
<rect x="-51.3925" y="187.105" width="60.9174" height="60.9174" stroke="white" stroke-width="1.21507"/>
<rect x="10.74" y="187.105" width="60.9174" height="60.9174" stroke="white" stroke-width="1.21507"/>
<rect x="72.8726" y="187.105" width="60.9174" height="60.9174" stroke="white" stroke-width="1.21507"/>
<rect x="135.005" y="187.105" width="60.9174" height="60.9174" stroke="white" stroke-width="1.21507"/>
<rect x="197.138" y="187.105" width="60.9174" height="60.9174" stroke="white" stroke-width="1.21507"/>
<rect x="259.27" y="187.105" width="60.9174" height="60.9174" stroke="white" stroke-width="1.21507"/>
<rect x="321.403" y="187.105" width="60.9174" height="60.9174" stroke="white" stroke-width="1.21507"/>
<rect x="383.535" y="187.105" width="60.9174" height="60.9174" stroke="white" stroke-width="1.21507"/>
<rect x="445.668" y="187.105" width="60.9174" height="60.9174" stroke="white" stroke-width="1.21507"/>
<rect x="507.8" y="187.105" width="60.9174" height="60.9174" stroke="white" stroke-width="1.21507"/>
<rect x="-51.3925" y="249.237" width="60.9174" height="60.9174" stroke="white" stroke-width="1.21507"/>
<rect x="10.74" y="249.237" width="60.9174" height="60.9174" stroke="white" stroke-width="1.21507"/>
<rect x="72.8726" y="249.237" width="60.9174" height="60.9174" stroke="white" stroke-width="1.21507"/>
<rect x="135.005" y="249.237" width="60.9174" height="60.9174" stroke="white" stroke-width="1.21507"/>
<rect x="197.138" y="249.237" width="60.9174" height="60.9174" fill="#D9D9D9" stroke="white" stroke-width="1.21507"/>
<rect x="259.27" y="249.237" width="60.9174" height="60.9174" stroke="white" stroke-width="1.21507"/>
<rect x="321.403" y="249.237" width="60.9174" height="60.9174" stroke="white" stroke-width="1.21507"/>
<rect x="383.535" y="249.237" width="60.9174" height="60.9174" stroke="white" stroke-width="1.21507"/>
<rect x="445.668" y="249.237" width="60.9174" height="60.9174" stroke="white" stroke-width="1.21507"/>
<rect x="507.8" y="249.237" width="60.9174" height="60.9174" stroke="white" stroke-width="1.21507"/>
<rect x="-51.3925" y="311.37" width="60.9174" height="60.9174" stroke="white" stroke-width="1.21507"/>
<rect x="10.74" y="311.37" width="60.9174" height="60.9174" stroke="white" stroke-width="1.21507"/>
<rect x="72.8726" y="311.37" width="60.9174" height="60.9174" stroke="white" stroke-width="1.21507"/>
<rect x="135.005" y="311.37" width="60.9174" height="60.9174" stroke="white" stroke-width="1.21507"/>
<rect x="197.138" y="311.37" width="60.9174" height="60.9174" stroke="white" stroke-width="1.21507"/>
<rect x="259.27" y="311.37" width="60.9174" height="60.9174" stroke="white" stroke-width="1.21507"/>
<rect x="321.403" y="311.37" width="60.9174" height="60.9174" stroke="white" stroke-width="1.21507"/>
<rect x="383.535" y="311.37" width="60.9174" height="60.9174" stroke="white" stroke-width="1.21507"/>
<rect x="445.668" y="311.37" width="60.9174" height="60.9174" fill="#D9D9D9" stroke="white" stroke-width="1.21507"/>
<rect x="507.8" y="311.37" width="60.9174" height="60.9174" stroke="white" stroke-width="1.21507"/>
</g>
</g>
<defs>
<radialGradient id="paint0_radial_1_3480" cx="0" cy="0" r="1" gradientUnits="userSpaceOnUse" gradientTransform="translate(284.582 214.427) rotate(90.0134) scale(365.979 485.943)">
<stop stop-color="white"/>
<stop offset="0.652778" stop-color="#464646" stop-opacity="0"/>
</radialGradient>
</defs>
</svg>
