<svg width="22" height="20" viewBox="0 0 22 20" fill="none" xmlns="http://www.w3.org/2000/svg">
<path d="M7 10H7.009M10.995 10H11.005M14.991 10H15M17 19C18.232 19 19.231 17.849 19.231 16.429C19.231 14.181 19.131 12.687 20.673 10.909C21.109 10.407 21.109 9.593 20.673 9.091C19.131 7.314 19.231 5.819 19.231 3.571C19.231 2.151 18.232 1 17 1M5 19C3.768 19 2.769 17.849 2.769 16.429C2.769 14.181 2.869 12.687 1.327 10.909C0.891 10.407 0.891 9.593 1.327 9.091C2.835 7.353 2.769 5.84 2.769 3.57C2.769 2.151 3.768 1 5 1" stroke="#34A853" stroke-width="1.5" stroke-linecap="round" stroke-linejoin="round"/>
</svg>
