<svg width="17" height="18" viewBox="0 0 17 18" fill="none" xmlns="http://www.w3.org/2000/svg">
<path d="M8.49999 0.866394C7.40564 0.866394 6.32201 1.08194 5.31096 1.50073C4.29991 1.91952 3.38125 2.53335 2.60743 3.30717C1.04463 4.86997 0.166656 6.98959 0.166656 9.19973C0.166656 12.8831 2.55832 16.0081 5.86666 17.1164C6.28332 17.1831 6.41666 16.9247 6.41666 16.6997V15.2914C4.10832 15.7914 3.61666 14.1747 3.61666 14.1747C3.23332 13.2081 2.69166 12.9497 2.69166 12.9497C1.93332 12.4331 2.74999 12.4497 2.74999 12.4497C3.58332 12.5081 4.02499 13.3081 4.02499 13.3081C4.74999 14.5747 5.97499 14.1997 6.44999 13.9997C6.52499 13.4581 6.74166 13.0914 6.97499 12.8831C5.12499 12.6747 3.18332 11.9581 3.18332 8.78306C3.18332 7.85806 3.49999 7.11639 4.04166 6.52473C3.95832 6.31639 3.66666 5.44973 4.12499 4.32473C4.12499 4.32473 4.82499 4.09973 6.41666 5.17473C7.07499 4.99139 7.79166 4.89973 8.49999 4.89973C9.20832 4.89973 9.92499 4.99139 10.5833 5.17473C12.175 4.09973 12.875 4.32473 12.875 4.32473C13.3333 5.44973 13.0417 6.31639 12.9583 6.52473C13.5 7.11639 13.8167 7.85806 13.8167 8.78306C13.8167 11.9664 11.8667 12.6664 10.0083 12.8747C10.3083 13.1331 10.5833 13.6414 10.5833 14.4164V16.6997C10.5833 16.9247 10.7167 17.1914 11.1417 17.1164C14.45 15.9997 16.8333 12.8831 16.8333 9.19973C16.8333 8.10538 16.6178 7.02175 16.199 6.0107C15.7802 4.99965 15.1664 4.08099 14.3925 3.30717C13.6187 2.53335 12.7001 1.91952 11.689 1.50073C10.678 1.08194 9.59434 0.866394 8.49999 0.866394Z" fill="white"/>
</svg>
