<svg width="24" height="24" viewBox="0 0 24 24" fill="none" xmlns="http://www.w3.org/2000/svg">
<path d="M15.5 19C15.5 20.933 17.067 22.5 19 22.5C20.933 22.5 22.5 20.933 22.5 19C22.5 17.067 20.933 15.5 19 15.5C17.067 15.5 15.5 17.067 15.5 19ZM15.5 19C12.7152 19 10.0445 17.8938 8.07538 15.9246C6.10625 13.9555 5 11.2848 5 8.5M5 8.5C6.933 8.5 8.5 6.933 8.5 5C8.5 3.067 6.933 1.5 5 1.5C3.067 1.5 1.5 3.067 1.5 5C1.5 6.933 3.067 8.5 5 8.5ZM5 8.5V22.5" stroke="#F7DF1E" stroke-width="2" stroke-linecap="round" stroke-linejoin="round"/>
</svg>
