<svg width="26" height="26" viewBox="0 0 26 26" fill="none" xmlns="http://www.w3.org/2000/svg">
<path d="M14.5455 11.4544L5.34733 20.6526M6.34001 13.977L1.83458 12.9128C1.33889 12.7957 1.16455 12.1803 1.52363 11.8199L5.10664 8.23693C5.34733 7.99624 5.67389 7.85833 6.01606 7.85573L10.0557 7.8206M15.144 3.19808C18.1507 5.24848 20.7514 7.84922 22.8018 10.8559M12.0216 19.6599L13.0858 24.1653C13.2029 24.661 13.8183 24.8353 14.1787 24.4763L17.7617 20.8933C18.0024 20.6526 18.1403 20.326 18.1429 19.9838L18.178 15.9442M23.5733 8.74172L24.6246 3.68336C24.9108 2.30688 23.693 1.08912 22.3165 1.37535L17.2582 2.42657C15.7685 2.73621 14.4024 3.47389 13.3278 4.54984L9.17754 8.69879C7.59419 10.2821 6.56379 12.3351 6.23853 14.5508L6.22422 14.6458C6.01866 16.06 6.49223 17.4872 7.50182 18.4981C8.51141 19.5077 9.93993 19.9812 11.3541 19.7744L11.4491 19.7601C13.6648 19.4361 15.7178 18.4044 17.3011 16.8211L21.4501 12.6721C22.526 11.5975 23.2637 10.2314 23.5733 8.74172Z" stroke="#00ADD8" stroke-width="2" stroke-linecap="round" stroke-linejoin="round"/>
</svg>
